<svg xmlns="http://www.w3.org/2000/svg" version="1.1" xmlns:xlink="http://www.w3.org/1999/xlink"
    xmlns:svgjs="http://svgjs.com/svgjs" viewBox="0 0 140 140" width="30" height="30">
    <g transform="matrix(5.833333333333333,0,0,5.833333333333333,0,0)">
        <path
            d="M12,5.251C7.969,5.183,3.8,8,1.179,10.885a1.663,1.663,0,0,0,0,2.226C3.743,15.935,7.9,18.817,12,18.748c4.1.069,8.258-2.813,10.824-5.637a1.663,1.663,0,0,0,0-2.226C20.2,8,16.031,5.183,12,5.251Z"
            fill="none" stroke="#ffffff" stroke-linecap="round" stroke-linejoin="round" stroke-width="1.5"></path>
        <path d="M15.75,12A3.75,3.75,0,1,1,12,8.249,3.749,3.749,0,0,1,15.75,12Z" fill="none" stroke="#ffffff"
            stroke-linecap="round" stroke-linejoin="round" stroke-width="1.5"></path>
    </g>
</svg>